<svg width="46" height="42" viewBox="0 0 46 42" fill="none" xmlns="http://www.w3.org/2000/svg">
<path d="M42.8341 13.763C37.9975 9.44025 27.2868 3.63021 19.0333 1.0493C12.3362 -1.04645 6.15002 3.08142 4.33239 9.57944C3.26756 13.3932 2.40945 17.2745 1.77757 21.2115C1.1769 24.9417 0.798552 28.3418 0.638632 31.9646C0.334394 38.7887 5.55324 42.8888 12.2309 41.0674C22.3604 38.3036 32.3457 33.5792 41.1023 27.5743C47.0544 23.4941 46.5942 17.1233 42.8341 13.763Z" fill="#00377D"/>
<path d="M15.5381 14.1447L15.464 14.6418C14.7268 19.557 13.7088 21.2034 13.1042 20.9608C11.9419 20.4995 12.7259 16.4114 13.3812 14.1367H9.01651C8.50555 15.9143 8.174 18.4555 8.29882 20.0621C8.46264 22.122 9.61719 23.9832 11.661 23.9832C12.7142 23.9832 13.662 23.4185 14.4772 22.2016L13.8843 27.3634H17.1724L19.9613 14.1367H15.5381V14.1447Z" fill="#FFD100"/>
<path d="M13.1393 31.2487H16.6575L17.227 28.628H13.4279L13.1393 31.2487Z" fill="#FFD100"/>
<path d="M34.9781 18.1968C36.078 18.1968 37.0181 18.5786 37.6343 18.8888L37.9815 16.3834C37.3145 16.1766 36.3199 15.8665 34.9118 15.8665C32.1581 15.8665 30.1844 16.972 30.2273 19.0439C30.2858 21.8395 33.925 21.5811 33.9406 22.3247C33.9445 22.5474 33.6636 22.6866 33.0552 22.6866C32.2556 22.6866 31.0191 22.4639 29.9582 21.7361L29.5954 24.5C30.7071 24.9852 31.8889 25.1919 32.9889 25.1919C35.8947 25.1919 37.7474 23.8796 37.7045 21.8236C37.646 18.9922 34.0069 19.2507 33.9913 18.5428C33.9874 18.2843 34.4398 18.1968 34.9703 18.1968" fill="#FFD100"/>
<path d="M24.0568 22.8577C23.5068 22.8577 23.1753 22.3924 23.1519 21.4261C23.1246 20.1137 23.655 18.1969 24.6809 18.1969C25.2503 18.1969 25.5819 18.6821 25.6053 19.6803C25.6326 20.9767 25.1021 22.8577 24.0568 22.8577ZM26.1591 16.0375L26.0616 16.7613C25.5546 16.1728 24.9032 15.8626 23.9164 15.8626C20.991 15.8626 19.3957 18.6065 19.4542 21.5414C19.5049 24.0785 20.7453 25.1841 22.6448 25.1841C23.6511 25.1841 24.3649 24.8739 25.0397 24.2853L24.9578 25.0091H28.5462L29.7671 16.0296H26.1591V16.0375Z" fill="#FFD100"/>
</svg>
